<svg xmlns="http://www.w3.org/2000/svg" width="100%" height="auto" viewBox="0 0 800 369" version="1.1" preserveAspectRatio="xMidYMid meet" style="max-width: 100%; max-height: 70vh;">
	<path d="M 57 1.690 C 50.183 2.829, 38.245 7.662, 31.755 11.909 C 18.577 20.533, 8.909 33.200, 3.826 48.500 C 1.574 55.276, 1.500 56.587, 1.500 89.500 C 1.500 128.594, 1.726 129.960, 11.196 148.147 C 19.212 163.540, 26.698 172.791, 59.372 207.685 C 74.623 223.973, 81.624 233.129, 86.373 243 L 89.500 249.500 89.500 279.164 L 89.500 308.828 86.456 313.164 C 77.578 325.808, 59.532 325.507, 51.541 312.581 L 48.500 307.661 48.211 275.331 L 47.921 243 24.461 243 L 1 243 1 276.340 C 1 313.906, 1.668 318.868, 8.465 331.800 C 19.051 351.941, 38.086 365.068, 60.844 367.921 C 94.811 372.180, 126.539 350.584, 135.017 317.432 C 136.776 310.555, 137 306.320, 137 279.905 C 137 257.657, 136.631 248.379, 135.542 243.200 C 130.896 221.115, 118.131 201.254, 88.493 170 C 62.172 142.243, 54.856 133.048, 50.320 122.024 C 48.153 116.756, 48.047 115.271, 48.046 90 C 48.044 59.940, 48.330 58.527, 55.784 51.807 C 60.333 47.705, 64.568 46.512, 72.032 47.229 C 78.891 47.888, 84.127 51.608, 87.377 58.129 L 90 63.393 90 94.696 L 90 126 113.500 126 L 137 126 137 92.660 C 137 62.751, 136.797 58.526, 135.028 51.609 C 131.916 39.443, 126.813 30.756, 117.028 20.972 C 103.016 6.959, 88.284 0.864, 69.090 1.136 C 63.816 1.211, 58.375 1.460, 57 1.690 M 714.322 2.991 C 691.197 9.053, 674.117 25.210, 666.215 48.500 L 663.500 56.500 663.500 187.500 L 663.500 318.500 665.752 327 C 671.801 349.839, 685.654 364.459, 703.607 366.952 C 718.571 369.030, 731.404 363.299, 740.580 350.440 C 745.907 342.975, 748.457 337.418, 750.988 327.759 L 752.890 320.500 752.945 343.250 L 753 366 776.500 366 L 800 366 800 264 L 800 162 765.500 162 L 731 162 731 184.500 L 731 207 742.035 207 L 753.071 207 752.785 256.750 C 752.503 305.967, 752.476 306.544, 750.279 310.653 C 743.012 324.243, 725.995 326.617, 716.135 315.416 C 713.306 312.202, 711.777 309.303, 710.995 305.670 C 710.204 301.992, 709.972 266.166, 710.191 181.500 C 710.487 67.570, 710.580 62.351, 712.367 59 C 716.612 51.042, 722.885 47, 730.992 47 C 739.817 47, 746.199 50.792, 750.347 58.500 C 752.400 62.314, 752.515 63.973, 752.813 94.250 L 753.127 126 776.634 126 L 800.140 126 799.756 91.750 C 799.331 53.902, 799.042 51.773, 792.541 38.500 C 783.782 20.616, 768.065 8.004, 748.208 2.925 C 738.366 0.408, 724.071 0.436, 714.322 2.991 M 166 184.500 L 166 366 189.500 366 L 213 366 213 286.500 L 213 207 234.500 207 L 256 207 256 286.500 L 256 366 279.500 366 L 303 366 303 184.500 L 303 3 279.500 3 L 256 3 256 82.520 L 256 162.040 234.750 161.770 L 213.500 161.500 213.244 82.250 L 212.988 3 189.494 3 L 166 3 166 184.500 M 332 184.425 L 332 366 355.500 366 L 379 366 379 292.363 L 379 218.725 390.750 219.226 C 406.879 219.912, 413.322 222.940, 418.001 232.032 C 421.639 239.102, 422 245.842, 422 306.684 L 422 366 445.557 366 L 469.115 366 468.758 306.250 C 468.440 253.004, 468.211 245.847, 466.654 240.500 C 460.456 219.227, 446.650 204.673, 426.750 198.437 C 421.562 196.811, 421 196.363, 421 193.856 C 421 191.381, 421.554 190.913, 426.071 189.572 C 446.667 183.455, 461.143 164.881, 466.655 137.500 C 468.204 129.804, 468.469 123.210, 468.483 92 C 468.498 60.169, 468.274 54.683, 466.735 49.113 C 460.596 26.889, 445.634 11.771, 423.427 5.354 C 418.356 3.889, 411.326 3.584, 374.750 3.245 L 332 2.849 332 184.425 M 497.440 4.295 C 497.159 5.028, 497.066 76.024, 497.233 162.064 L 497.537 318.500 499.768 326.500 C 506.319 349.997, 519.902 364.400, 537.798 366.828 C 560.482 369.905, 577.958 355.503, 585.518 327.500 C 586.768 322.873, 586.873 324.122, 586.934 344.250 L 587 366 610.500 366 L 634 366 634 184.500 L 634 3 610.500 3 L 587 3 587 154.386 L 587 305.772 584.206 311.120 C 574.339 330.007, 548.112 324.548, 544.965 302.952 C 544.411 299.149, 544.033 236.351, 544.045 150 L 544.065 3.500 521.008 3.232 C 502.535 3.016, 497.850 3.228, 497.440 4.295 M 379 111.523 L 379 174.206 391.250 173.839 C 402.503 173.503, 403.924 173.239, 408.707 170.601 C 411.570 169.022, 414.988 166.103, 416.300 164.115 C 421.401 156.392, 421.500 155.386, 421.500 111.500 C 421.500 66.640, 421.347 65.216, 415.723 57.880 C 410.412 50.952, 406.561 49.553, 391.750 49.171 L 379 48.841 379 111.523" stroke="none" fill="white" fill-rule="evenodd"/>
</svg>